<?xml version="1.0" encoding="UTF-8" standalone="no"?>
<svg
   xmlns:dc="http://purl.org/dc/elements/1.1/"
   xmlns:cc="http://creativecommons.org/ns#"
   xmlns:rdf="http://www.w3.org/1999/02/22-rdf-syntax-ns#"
   xmlns:svg="http://www.w3.org/2000/svg"
   xmlns="http://www.w3.org/2000/svg"
   xmlns:sodipodi="http://sodipodi.sourceforge.net/DTD/sodipodi-0.dtd"
   xmlns:inkscape="http://www.inkscape.org/namespaces/inkscape"
   version="1.1"
   id="svg2"
   width="215"
   height="48"
   viewBox="0 0 215 48"
   sodipodi:docname="77.svg"
   inkscape:version="1.0.1 (3bc2e813f5, 2020-09-07)">
  <sodipodi:namedview
     pagecolor="#242424"
     bordercolor="#666666"
     borderopacity="1"
     objecttolerance="10"
     gridtolerance="10"
     guidetolerance="10"
     inkscape:pageopacity="0"
     inkscape:pageshadow="2"
     inkscape:window-width="1316"
     inkscape:window-height="718"
     id="namedview10"
     showgrid="false"
     inkscape:zoom="5.4604651"
     inkscape:cx="110.43015"
     inkscape:cy="24"
     inkscape:window-x="50"
     inkscape:window-y="50"
     inkscape:window-maximized="0"
     inkscape:current-layer="svg2"
     inkscape:document-rotation="0">
    <sodipodi:guide
       position="14.354687,35.956"
       orientation="0,45.340626"
       id="guide12" />
    <sodipodi:guide
       position="62.05,33.269364"
       orientation="18.448226,0"
       id="guide14" />
    <sodipodi:guide
       position="59.695313,12.044948"
       orientation="0,-45.340626"
       id="guide16" />
    <sodipodi:guide
       position="12,14.821138"
       orientation="-18.448226,0"
       id="guide18" />
  </sodipodi:namedview>
  <metadata
     id="metadata8">
    <rdf:RDF>
      <cc:Work
         rdf:about="">
        <dc:format>image/svg+xml</dc:format>
        <dc:type
           rdf:resource="http://purl.org/dc/dcmitype/StillImage" />
        <dc:title />
      </cc:Work>
    </rdf:RDF>
  </metadata>
  <defs
     id="defs6" />
  <path
     id="battery"
     style="fill:#ffffff;fill-opacity:1;fill-rule:evenodd;stroke:none;stroke-width:1.49775"
     d="m 11.470703,5.5273438 c -2.3321404,-10e-8 -4.2089843,1.876844 -4.2089842,4.2089843 V 38.263672 c -10e-8,2.332141 1.8768438,4.208984 4.2089842,4.208984 h 66.544922 c 2.332141,0 4.210937,-1.876843 4.210937,-4.208984 v -6.941406 h 1.976563 c 0.634019,0 1.144531,-0.510513 1.144531,-1.144532 v -12.46875 c 0,-0.634019 -0.510512,-1.144531 -1.144531,-1.144531 H 82.226562 V 9.7363281 c 0,-2.3321403 -1.878796,-4.2089844 -4.210937,-4.2089843 z m 2.130859,3.0820312 h 62.283204 c 1.943042,0 3.507812,1.562817 3.507812,3.505859 v 23.769532 c 0,1.943042 -1.56477,3.505859 -3.507812,3.505859 H 13.601562 c -1.943042,0 -3.505859,-1.562817 -3.505859,-3.505859 V 12.115234 c 0,-1.943042 1.562818,-3.505859 3.505859,-3.505859 z" />
  <path
     id="capacity"
     style="fill:#ffffff;fill-opacity:1;fill-rule:evenodd;stroke:none;stroke-width:1.11578"
     d="M 15.058594 12.044922 C 13.364434 12.044922 12 13.208043 12 14.730469 L 12 33.179688 C 12 34.702114 13.364434 35.955078 15.058594 35.955078 L 62.050781 35.955078 L 62.050781 12.044922 L 15.058594 12.044922 z " />
  <text
     xml:space="preserve"
     style="font-style:normal;font-variant:normal;font-weight:bold;font-stretch:normal;font-size:40px;line-height:1.25;font-family:Zekton;-inkscape-font-specification:'Zekton, Bold';font-variant-ligatures:normal;font-variant-caps:normal;font-variant-numeric:normal;font-variant-east-asian:normal;text-align:end;text-anchor:end;fill:#ffffff"
     x="210.50195"
     y="40"
     id="percents"><tspan
       id="tspan939"
       x="210.50195"
       y="40">77%</tspan></text>
</svg>
