<?xml version="1.0" encoding="UTF-8" standalone="no"?>
<svg
   xmlns:dc="http://purl.org/dc/elements/1.1/"
   xmlns:cc="http://creativecommons.org/ns#"
   xmlns:rdf="http://www.w3.org/1999/02/22-rdf-syntax-ns#"
   xmlns:svg="http://www.w3.org/2000/svg"
   xmlns="http://www.w3.org/2000/svg"
   xmlns:sodipodi="http://sodipodi.sourceforge.net/DTD/sodipodi-0.dtd"
   xmlns:inkscape="http://www.inkscape.org/namespaces/inkscape"
   version="1.1"
   id="svg2"
   width="326.66666"
   height="64"
   viewBox="0 0 326.66666 64"
   sodipodi:docname="105.svg"
   inkscape:version="1.0.1 (3bc2e813f5, 2020-09-07)">
  <metadata
     id="metadata8">
    <rdf:RDF>
      <cc:Work
         rdf:about="">
        <dc:format>image/svg+xml</dc:format>
        <dc:type
           rdf:resource="http://purl.org/dc/dcmitype/StillImage" />
        <dc:title />
      </cc:Work>
    </rdf:RDF>
  </metadata>
  <defs
     id="defs6" />
  <sodipodi:namedview
     pagecolor="#393939"
     bordercolor="#666666"
     borderopacity="1"
     objecttolerance="10"
     gridtolerance="10"
     guidetolerance="10"
     inkscape:pageopacity="0"
     inkscape:pageshadow="2"
     inkscape:window-width="1316"
     inkscape:window-height="718"
     id="namedview4"
     showgrid="false"
     inkscape:zoom="3.7986951"
     inkscape:cx="206.16819"
     inkscape:cy="32.000976"
     inkscape:window-x="50"
     inkscape:window-y="50"
     inkscape:window-maximized="0"
     inkscape:current-layer="g10"
     inkscape:document-rotation="0">
    <sodipodi:guide
       position="89.82708,39.658837"
       orientation="15.317673,0"
       id="guide838" />
    <sodipodi:guide
       position="89.82708,24.341164"
       orientation="0,10.565002"
       id="guide840" />
    <sodipodi:guide
       position="100.39208,24.341164"
       orientation="-15.317673,0"
       id="guide842" />
    <sodipodi:guide
       position="100.39208,39.658837"
       orientation="0,-10.565002"
       id="guide844" />
  </sodipodi:namedview>
  <g
     inkscape:groupmode="layer"
     inkscape:label="Image"
     id="g10">
    <path
       id="rect14"
       style="fill:#ffffff;fill-rule:evenodd;stroke-width:1.5"
       d="M 46.248047 18.001953 L 35.744141 26.005859 L 27.761719 26.005859 L 27.761719 37.994141 L 35.744141 37.994141 L 46.248047 45.998047 L 46.248047 18.001953 z " />
    <rect
       style="fill:none;fill-rule:evenodd;stroke:#ffffff;stroke-width:1.81156"
       id="rect54"
       width="215.69102"
       height="20.025331"
       x="87.631371"
       y="21.987335"
       ry="4.2066102" />
    <path
       id="circle102"
       style="opacity:1;fill:#ffffff;fill-rule:evenodd;stroke-width:1.0736"
       d="m 53.259766,19.667969 -2.582032,2.638672 A 13.558244,13.558244 0 0 1 54.753906,32 13.558244,13.558244 0 0 1 50.466797,41.892578 l 2.525391,2.695313 A 17.251467,17.251467 0 0 0 58.447266,32 17.251467,17.251467 0 0 0 53.259766,19.667969 Z M 41.751953,7.9042969 a 24.103067,24.103067 0 0 1 0.396485,0.011719 24.103067,24.103067 0 0 0 -0.396485,-0.011719 z m -1.273437,0.00391 a 24.103067,24.103067 0 0 0 -0.376954,0.013672 24.103067,24.103067 0 0 1 0.376954,-0.013672 z m -0.376954,0.013672 a 24.103067,24.103067 0 0 0 -0.320312,0.017578 24.103067,24.103067 0 0 1 0.320312,-0.017578 z m 2.074219,-0.00586 A 24.103067,24.103067 0 0 1 42.576172,7.9375 24.103067,24.103067 0 0 0 42.175781,7.9160156 Z M 42.576172,7.9375 A 24.103067,24.103067 0 0 1 42.878906,7.9570312 24.103067,24.103067 0 0 0 42.576172,7.9375 Z m 0.484375,0.03125 a 24.103067,24.103067 0 0 1 0.292969,0.025391 24.103067,24.103067 0 0 0 -0.292969,-0.025391 z m -3.835938,0.00781 a 24.103067,24.103067 0 0 0 -0.341797,0.03125 24.103067,24.103067 0 0 1 0.341797,-0.03125 z M 43.425781,8 A 24.103067,24.103067 0 0 1 43.810547,8.0390625 24.103067,24.103067 0 0 0 43.425781,8 Z m 0.384766,0.039063 a 24.103067,24.103067 0 0 1 0.410156,0.048828 24.103067,24.103067 0 0 0 -0.410156,-0.048828 z m 0.410156,0.048828 a 24.103067,24.103067 0 0 1 0.380859,0.050781 24.103067,24.103067 0 0 0 -0.380859,-0.050781 z m -5.365234,-0.076172 a 24.103067,24.103067 0 0 0 -0.265625,0.027344 24.103067,24.103067 0 0 1 0.265625,-0.027344 z m 5.802734,0.1347656 a 24.103067,24.103067 0 0 1 0.345703,0.052734 24.103067,24.103067 0 0 0 -0.345703,-0.052734 z m -7.021484,0.015625 a 24.103067,24.103067 0 0 0 -0.408203,0.064453 24.103067,24.103067 0 0 1 0.408203,-0.064453 z m 7.416015,0.044922 a 24.103067,24.103067 0 0 1 0.392578,0.068359 24.103067,24.103067 0 0 0 -0.392578,-0.068359 z m 0.392578,0.068359 a 24.103067,24.103067 0 0 1 0.40625,0.076172 24.103067,24.103067 0 0 0 -0.40625,-0.076172 z m 0.40625,0.076172 a 24.103067,24.103067 0 0 1 0.392579,0.080078 24.103067,24.103067 0 0 0 -0.392579,-0.080078 z m 0.414063,0.083984 A 24.103067,24.103067 0 0 1 46.552734,8.5 24.103067,24.103067 0 0 0 46.265625,8.4355469 Z m -10.683594,0.125 a 24.103067,24.103067 0 0 0 -0.373047,0.091797 24.103067,24.103067 0 0 1 0.373047,-0.091797 z m -0.373047,0.091797 a 24.103067,24.103067 0 0 0 -0.296875,0.078125 24.103067,24.103067 0 0 1 0.296875,-0.078125 z m 12.304688,0.087891 A 24.103067,24.103067 0 0 1 47.8125,8.8242188 24.103067,24.103067 0 0 0 47.513672,8.7402344 Z M 47.882812,8.84375 A 24.103067,24.103067 0 0 1 48.251953,8.953125 24.103067,24.103067 0 0 0 47.882812,8.84375 Z m 0.369141,0.109375 a 24.103067,24.103067 0 0 1 0.394531,0.125 24.103067,24.103067 0 0 0 -0.394531,-0.125 z m 0.394531,0.125 A 24.103067,24.103067 0 0 1 49.037109,9.2089844 24.103067,24.103067 0 0 0 48.646484,9.078125 Z M 33.992188,9 A 24.103067,24.103067 0 0 0 33.628906,9.1152344 24.103067,24.103067 0 0 1 33.992188,9 Z m -0.369141,0.1171875 a 24.103067,24.103067 0 0 0 -0.367188,0.125 24.103067,24.103067 0 0 1 0.367188,-0.125 z M 49.462891,9.359375 A 24.103067,24.103067 0 0 1 49.814453,9.4902344 24.103067,24.103067 0 0 0 49.462891,9.359375 Z m 0.351562,0.1308594 A 24.103067,24.103067 0 0 1 50.125,9.6113281 24.103067,24.103067 0 0 0 49.814453,9.4902344 Z m 1.519531,0.6425776 a 24.103067,24.103067 0 0 1 0.373047,0.177735 24.103067,24.103067 0 0 0 -0.373047,-0.177735 z m 0.373047,0.177735 a 24.103067,24.103067 0 0 1 0.25,0.123047 24.103067,24.103067 0 0 0 -0.25,-0.123047 z m 1.509766,0.798828 a 24.103067,24.103067 0 0 1 0.306641,0.179687 24.103067,24.103067 0 0 0 -0.306641,-0.179687 z m -24.128906,0.04883 a 24.103067,24.103067 0 0 0 -0.314453,0.1875 24.103067,24.103067 0 0 1 0.314453,-0.1875 z m -0.335938,0.201172 a 24.103067,24.103067 0 0 0 -0.34375,0.210937 24.103067,24.103067 0 0 1 0.34375,-0.210937 z m -1.072265,0.683594 A 24.103067,24.103067 0 0 0 27.382812,12.25 24.103067,24.103067 0 0 1 27.679688,12.042969 Z m 27.234374,0.138672 A 24.103067,24.103067 0 0 1 55.25,12.417969 24.103067,24.103067 0 0 0 54.914062,12.181641 Z M 55.25,12.417969 A 24.103067,24.103067 0 0 1 55.513672,12.611328 24.103067,24.103067 0 0 0 55.25,12.417969 Z m -28.544922,0.322265 a 24.103067,24.103067 0 0 0 -0.226562,0.171875 24.103067,24.103067 0 0 1 0.226562,-0.171875 z m 29.578125,0.462891 a 24.103067,24.103067 0 0 1 0.275391,0.224609 24.103067,24.103067 0 0 0 -0.275391,-0.224609 z m 0.275391,0.224609 a 24.103067,24.103067 0 0 1 0.314453,0.265625 24.103067,24.103067 0 0 0 -0.314453,-0.265625 z m 0.314453,0.265625 a 24.103067,24.103067 0 0 1 0.3125,0.271485 24.103067,24.103067 0 0 0 -0.3125,-0.271485 z m 0.3125,0.271485 a 24.103067,24.103067 0 0 1 0.236328,0.21289 24.103067,24.103067 0 0 0 -0.236328,-0.21289 z m 0.865234,0.804687 -2.341797,2.392578 A 20.755333,20.755333 0 0 1 61.951172,32 a 20.755333,20.755333 0 0 1 -6.5625,15.144531 l 2.289062,2.441407 A 24.103067,24.103067 0 0 0 65.298828,32 24.103067,24.103067 0 0 0 58.050781,14.769531 Z m -36.021484,2.617188 a 24.103067,24.103067 0 0 0 -0.181641,0.242187 24.103067,24.103067 0 0 1 0.181641,-0.242187 z m -4.421875,9.667969 a 24.103067,24.103067 0 0 0 -0.05664,0.27539 24.103067,24.103067 0 0 1 0.05664,-0.27539 z m 6.785156,22.224609 A 24.103067,24.103067 0 0 0 24.6875,49.5625 24.103067,24.103067 0 0 1 24.392578,49.279297 Z m 3.191406,2.611328 a 24.103067,24.103067 0 0 0 0.228516,0.154297 24.103067,24.103067 0 0 1 -0.228516,-0.154297 z m 25.408204,1.126953 a 24.103067,24.103067 0 0 1 -0.324219,0.179688 24.103067,24.103067 0 0 0 0.324219,-0.179688 z m -22.146485,0.75 a 24.103067,24.103067 0 0 0 0.328125,0.152344 24.103067,24.103067 0 0 1 -0.328125,-0.152344 z m 0.328125,0.152344 a 24.103067,24.103067 0 0 0 0.365234,0.164062 24.103067,24.103067 0 0 1 -0.365234,-0.164062 z m 1.16211,0.49414 a 24.103067,24.103067 0 0 0 0.361328,0.140626 24.103067,24.103067 0 0 1 -0.361328,-0.140626 z m 0.361328,0.140626 a 24.103067,24.103067 0 0 0 0.351562,0.128906 24.103067,24.103067 0 0 1 -0.351562,-0.128906 z m 0.777343,0.277343 a 24.103067,24.103067 0 0 0 0.392579,0.128907 24.103067,24.103067 0 0 1 -0.392579,-0.128907 z m 0.392579,0.128907 a 24.103067,24.103067 0 0 0 0.371093,0.115234 24.103067,24.103067 0 0 1 -0.371093,-0.115234 z m 14.232421,0.132812 a 24.103067,24.103067 0 0 1 -0.779297,0.21875 24.103067,24.103067 0 0 0 0.779297,-0.21875 z m -12.242187,0.410156 a 24.103067,24.103067 0 0 0 0.404297,0.08789 24.103067,24.103067 0 0 1 -0.404297,-0.08789 z m 0.404297,0.08789 a 24.103067,24.103067 0 0 0 0.355469,0.07227 24.103067,24.103067 0 0 1 -0.355469,-0.07227 z m 0.845703,0.162109 a 24.103067,24.103067 0 0 0 0.373047,0.06055 24.103067,24.103067 0 0 1 -0.373047,-0.06055 z m 0.373047,0.06055 a 24.103067,24.103067 0 0 0 0.408203,0.06055 24.103067,24.103067 0 0 1 -0.408203,-0.06055 z m 0.408203,0.06055 a 24.103067,24.103067 0 0 0 0.408203,0.05273 24.103067,24.103067 0 0 1 -0.408203,-0.05273 z m 0.408203,0.05273 a 24.103067,24.103067 0 0 0 0.351563,0.04102 24.103067,24.103067 0 0 1 -0.351563,-0.04102 z m 5.730469,0.0078 a 24.103067,24.103067 0 0 1 -1.197266,0.111328 24.103067,24.103067 0 0 0 1.197266,-0.111328 z m -4.875,0.08008 a 24.103067,24.103067 0 0 0 0.376953,0.0293 24.103067,24.103067 0 0 1 -0.376953,-0.0293 z m 0.376953,0.0293 a 24.103067,24.103067 0 0 0 0.412109,0.02539 24.103067,24.103067 0 0 1 -0.412109,-0.02539 z m 0.412109,0.02539 a 24.103067,24.103067 0 0 0 0.414063,0.01758 24.103067,24.103067 0 0 1 -0.414063,-0.01758 z m 0.414063,0.01758 a 24.103067,24.103067 0 0 0 0.345703,0.0098 24.103067,24.103067 0 0 1 -0.345703,-0.0098 z" />
    <rect
       style="fill:#ffffff;fill-rule:evenodd;stroke:none;stroke-width:1.56816"
       id="rect135"
       width="211.29961"
       height="15.317673"
       x="89.82708"
       y="24.341164"
       ry="3.2176986" />
    <path
       id="rect11"
       style="fill:#7593ff;fill-opacity:1;fill-rule:evenodd;stroke:none;stroke-width:1.56816"
       d="M 93.044922 24.341797 C 91.262317 24.341797 89.826172 25.775989 89.826172 27.558594 L 89.826172 36.441406 C 89.826172 38.224011 91.262317 39.658203 93.044922 39.658203 L 100.39258 39.658203 L 100.39258 24.341797 L 93.044922 24.341797 z " />
  </g>
</svg>
