<?xml version="1.0" encoding="UTF-8" standalone="no"?>
<svg
   xmlns:dc="http://purl.org/dc/elements/1.1/"
   xmlns:cc="http://creativecommons.org/ns#"
   xmlns:rdf="http://www.w3.org/1999/02/22-rdf-syntax-ns#"
   xmlns:svg="http://www.w3.org/2000/svg"
   xmlns="http://www.w3.org/2000/svg"
   xmlns:sodipodi="http://sodipodi.sourceforge.net/DTD/sodipodi-0.dtd"
   xmlns:inkscape="http://www.inkscape.org/namespaces/inkscape"
   version="1.1"
   width="240"
   height="240"
   viewBox="0 0 24 24"
   id="svg4"
   sodipodi:docname="ssd.svg"
   inkscape:version="1.0.2 (e86c870879, 2021-01-15)">
  <metadata
     id="metadata10">
    <rdf:RDF>
      <cc:Work
         rdf:about="">
        <dc:format>image/svg+xml</dc:format>
        <dc:type
           rdf:resource="http://purl.org/dc/dcmitype/StillImage" />
        <dc:title></dc:title>
      </cc:Work>
    </rdf:RDF>
  </metadata>
  <defs
     id="defs8" />
  <sodipodi:namedview
     pagecolor="#ffffff"
     bordercolor="#666666"
     borderopacity="1"
     objecttolerance="10"
     gridtolerance="10"
     guidetolerance="10"
     inkscape:pageopacity="0"
     inkscape:pageshadow="2"
     inkscape:window-width="1872"
     inkscape:window-height="1032"
     id="namedview6"
     showgrid="false"
     inkscape:pagecheckerboard="true"
     inkscape:zoom="3.6416667"
     inkscape:cx="108.60412"
     inkscape:cy="120"
     inkscape:window-x="48"
     inkscape:window-y="48"
     inkscape:window-maximized="0"
     inkscape:current-layer="svg4" />
  <path
     id="path2"
     style="stroke-width:10;fill:#ffffff"
     d="M 60 20 C 48.954305 20 40 28.954305 40 40 L 40 200 C 40 211.04569 48.954305 220 60 220 L 180 220 C 191.04569 220 200 211.04569 200 200 L 200 40 C 200 28.954305 191.04569 20 180 20 L 60 20 z M 65.886719 35.269531 A 8.9241916 8.9241916 0 0 1 74.810547 44.193359 A 8.9241916 8.9241916 0 0 1 65.886719 53.119141 A 8.9241916 8.9241916 0 0 1 56.960938 44.193359 A 8.9241916 8.9241916 0 0 1 65.886719 35.269531 z M 175.88672 35.269531 A 8.9241916 8.9241916 0 0 1 184.81055 44.193359 A 8.9241916 8.9241916 0 0 1 175.88672 53.119141 A 8.9241916 8.9241916 0 0 1 166.96094 44.193359 A 8.9241916 8.9241916 0 0 1 175.88672 35.269531 z M 69.802734 95.609375 C 72.385002 95.609375 75.040306 95.810098 77.769531 96.208984 C 80.498757 96.586877 83.324016 97.164627 86.242188 97.941406 L 86.242188 107.89258 C 83.65992 106.73791 81.139897 105.86518 78.683594 105.27734 C 76.227291 104.68951 73.90799 104.39648 71.724609 104.39648 C 68.827431 104.39648 66.686388 104.79598 65.300781 105.59375 C 63.915174 106.39152 63.220703 107.62907 63.220703 109.30859 C 63.220703 110.56824 63.683684 111.55573 64.607422 112.26953 C 65.552154 112.96233 67.252681 113.5606 69.708984 114.06445 L 74.873047 115.10352 C 80.100563 116.15322 83.81711 117.74923 86.021484 119.89062 C 88.225859 122.03202 89.328125 125.0746 89.328125 129.02148 C 89.328125 134.20701 87.785343 138.07105 84.699219 140.61133 C 81.634089 143.13061 76.940301 144.39062 70.621094 144.39062 C 67.63994 144.39062 64.648632 144.1059 61.646484 143.53906 C 58.644336 142.97222 55.642773 142.13222 52.640625 141.01953 L 52.640625 130.78516 C 55.642773 132.3807 58.539824 133.58748 61.332031 134.40625 C 64.145233 135.20402 66.85377 135.60352 69.457031 135.60352 C 72.102281 135.60352 74.128555 135.163 75.535156 134.28125 C 76.941757 133.3995 77.644531 132.13949 77.644531 130.50195 C 77.644531 129.03237 77.161038 127.89934 76.195312 127.10156 C 75.250581 126.30379 73.351284 125.58881 70.496094 124.95898 L 65.804688 123.91992 C 61.102022 122.91221 57.65799 121.30594 55.474609 119.10156 C 53.312223 116.89719 52.230469 113.92835 52.230469 110.19141 C 52.230469 105.50973 53.742483 101.90796 56.765625 99.388672 C 59.788767 96.869387 64.134343 95.609375 69.802734 95.609375 z M 113.35547 95.609375 C 115.93774 95.609375 118.59304 95.810098 121.32227 96.208984 C 124.05149 96.586877 126.8748 97.164627 129.79297 97.941406 L 129.79297 107.89258 C 127.2107 106.73791 124.69263 105.86518 122.23633 105.27734 C 119.78003 104.68951 117.45877 104.39648 115.27539 104.39648 C 112.37821 104.39648 110.23717 104.79598 108.85156 105.59375 C 107.46596 106.39152 106.77344 107.62907 106.77344 109.30859 C 106.77344 110.56824 107.23642 111.55573 108.16016 112.26953 C 109.10489 112.96233 110.80542 113.5606 113.26172 114.06445 L 118.42578 115.10352 C 123.6533 116.15322 127.36984 117.74923 129.57422 119.89062 C 131.77859 122.03202 132.87891 125.0746 132.87891 129.02148 C 132.87891 134.20701 131.33612 138.07105 128.25 140.61133 C 125.18487 143.13061 120.49303 144.39062 114.17383 144.39062 C 111.19267 144.39062 108.20137 144.1059 105.19922 143.53906 C 102.19707 142.97222 99.195507 142.13222 96.193359 141.01953 L 96.193359 130.78516 C 99.195507 132.3807 102.09256 133.58748 104.88477 134.40625 C 107.69797 135.20402 110.4065 135.60352 113.00977 135.60352 C 115.65502 135.60352 117.67934 135.163 119.08594 134.28125 C 120.49254 133.3995 121.19727 132.13949 121.19727 130.50195 C 121.19727 129.03237 120.71377 127.89934 119.74805 127.10156 C 118.80331 126.30379 116.90402 125.58881 114.04883 124.95898 L 109.35547 123.91992 C 104.6528 122.91221 101.21072 121.30594 99.027344 119.10156 C 96.864957 116.89719 95.783203 113.92835 95.783203 110.19141 C 95.783203 105.50973 97.295217 101.90796 100.31836 99.388672 C 103.3415 96.869387 107.68708 95.609375 113.35547 95.609375 z M 143.52344 96.460938 L 156.30859 96.460938 C 163.44657 96.460938 168.75913 96.975198 172.24414 98.003906 C 175.75015 99.01162 178.75171 100.73266 181.25 103.16797 C 183.45437 105.28837 185.09141 107.73465 186.16211 110.50586 C 187.23281 113.27707 187.76953 116.41587 187.76953 119.92188 C 187.76953 123.46987 187.23281 126.63943 186.16211 129.43164 C 185.09141 132.20285 183.45437 134.64913 181.25 136.76953 C 178.73071 139.20484 175.70864 140.93614 172.18164 141.96484 C 168.65464 142.97256 163.36259 143.47656 156.30859 143.47656 L 143.52344 143.47656 L 143.52344 96.460938 z M 155.64844 105.625 L 155.64844 134.3125 L 159.99414 134.3125 C 164.94873 134.3125 168.72682 133.08521 171.33008 130.62891 C 173.95433 128.1726 175.26758 124.60355 175.26758 119.92188 C 175.26758 115.2612 173.96459 111.71265 171.36133 109.27734 C 168.75807 106.84203 164.96973 105.625 159.99414 105.625 L 155.64844 105.625 z M 65.886719 185.26953 A 8.9241916 8.9241916 0 0 1 74.810547 194.19531 A 8.9241916 8.9241916 0 0 1 65.886719 203.11914 A 8.9241916 8.9241916 0 0 1 56.960938 194.19531 A 8.9241916 8.9241916 0 0 1 65.886719 185.26953 z M 175.88672 185.26953 A 8.9241916 8.9241916 0 0 1 184.81055 194.19531 A 8.9241916 8.9241916 0 0 1 175.88672 203.11914 A 8.9241916 8.9241916 0 0 1 166.96094 194.19531 A 8.9241916 8.9241916 0 0 1 175.88672 185.26953 z "
     transform="scale(0.1)" />
</svg>
